<svg width="24" height="25" viewBox="0 0 24 25" fill="none" xmlns="http://www.w3.org/2000/svg">
<path d="M22.54 7.18465C22.4212 6.71006 22.1792 6.27522 21.8386 5.92405C21.498 5.57289 21.0707 5.31783 20.6 5.18465C18.88 4.76465 12 4.76465 12 4.76465C12 4.76465 5.11996 4.76465 3.39996 5.22465C2.92921 5.35783 2.50194 5.61289 2.16131 5.96405C1.82068 6.31522 1.57875 6.75006 1.45996 7.22465C1.14518 8.9702 0.991197 10.741 0.999961 12.5146C0.988741 14.3017 1.14273 16.086 1.45996 17.8446C1.59092 18.3045 1.83827 18.7228 2.17811 19.0591C2.51794 19.3955 2.93878 19.6385 3.39996 19.7646C5.11996 20.2246 12 20.2246 12 20.2246C12 20.2246 18.88 20.2246 20.6 19.7646C21.0707 19.6315 21.498 19.3764 21.8386 19.0252C22.1792 18.6741 22.4212 18.2392 22.54 17.7646C22.8523 16.0322 23.0063 14.275 23 12.5146C23.0112 10.7276 22.8572 8.94335 22.54 7.18465V7.18465Z" stroke="#37363C" stroke-linecap="round" stroke-linejoin="round"/>
<path d="M9.75 15.7846L15.5 12.5146L9.75 9.24463V15.7846Z" stroke="#37363C" stroke-linecap="round" stroke-linejoin="round"/>
</svg>
